# 3ds Max Wavefront OBJ Exporter v0.99 - (c)2007 guruware
# Fichier créé: 07.11.2022 22:13:31

mtllib Lampe.mtl

#
# object Cylindre001
#

v  -4.1564 2.2608 0.9970
v  -4.1564 2.7670 1.8738
v  -4.1564 3.5425 2.5245
v  -4.1564 4.4938 2.8708
v  -4.1564 5.5062 2.8708
v  -4.1564 6.4575 2.5245
v  -4.1564 7.2331 1.8738
v  -4.1564 7.7392 0.9970
v  -4.1564 7.9150 -0.0000
v  -4.1564 7.7392 -0.9970
v  -4.1564 7.2331 -1.8738
v  -4.1564 6.4575 -2.5245
v  -4.1564 5.5062 -2.8708
v  -4.1564 4.4938 -2.8708
v  -4.1564 3.5425 -2.5245
v  -4.1564 2.7669 -1.8738
v  -4.1564 2.2608 -0.9970
v  -4.1564 2.0850 0.0000
v  13.3188 2.0850 0.0000
v  13.3188 2.2608 -0.9970
v  19.3845 -1.3332 -2.3051
v  19.3845 -1.7397 0.0000
v  13.3188 2.7669 -1.8738
v  19.3845 -0.1629 -4.3322
v  13.3188 3.5425 -2.5245
v  19.3845 1.6302 -5.8367
v  13.3188 4.4938 -2.8708
v  19.3845 3.8297 -6.6373
v  13.3188 5.5062 -2.8708
v  19.3845 6.1703 -6.6373
v  13.3188 6.4575 -2.5245
v  19.3845 8.3698 -5.8367
v  13.3188 7.2331 -1.8738
v  19.3845 10.1629 -4.3322
v  13.3188 7.7392 -0.9970
v  19.3845 11.3332 -2.3051
v  13.3188 7.9150 -0.0000
v  19.3845 11.7397 -0.0000
v  13.3188 7.7392 0.9970
v  19.3845 11.3332 2.3051
v  13.3188 7.2331 1.8738
v  19.3845 10.1629 4.3322
v  13.3188 6.4575 2.5245
v  19.3845 8.3698 5.8367
v  13.3188 5.5062 2.8708
v  19.3845 6.1703 6.6373
v  13.3188 4.4938 2.8708
v  19.3845 3.8297 6.6373
v  13.3188 3.5425 2.5245
v  19.3845 1.6302 5.8367
v  13.3188 2.7669 1.8738
v  19.3845 -0.1629 4.3322
v  13.3188 2.2608 0.9970
v  19.3845 -1.3332 2.3051
# 54 vertices

vn -0.6701 -0.6975 0.2539
vn -0.6701 -0.5686 0.4772
vn -0.6700 -0.3712 0.6429
vn -0.6700 -0.1289 0.7311
vn -0.6700 0.1289 0.7311
vn -0.6700 0.3712 0.6429
vn -0.6700 0.5687 0.4772
vn -0.6700 0.6976 0.2539
vn -0.6701 0.7423 0.0000
vn -0.6701 0.6975 -0.2539
vn -0.6701 0.5686 -0.4771
vn -0.6701 0.3711 -0.6429
vn -0.6700 0.1289 -0.7311
vn -0.6700 -0.1289 -0.7311
vn -0.6700 -0.3712 -0.6429
vn -0.6700 -0.5687 -0.4772
vn -0.6701 -0.6975 -0.2539
vn -0.6701 -0.7423 0.0000
vn -0.2862 -0.9582 0.0000
vn -0.2862 -0.9004 -0.3277
vn 0.4462 -0.8410 -0.3061
vn 0.4462 -0.8949 0.0000
vn -0.2861 -0.7340 -0.6159
vn 0.4462 -0.6856 -0.5752
vn -0.2861 -0.4791 -0.8298
vn 0.4462 -0.4475 -0.7750
vn -0.2861 -0.1664 -0.9436
vn 0.4462 -0.1554 -0.8813
vn -0.2861 0.1664 -0.9436
vn 0.4462 0.1554 -0.8813
vn -0.2862 0.4791 -0.8298
vn 0.4462 0.4475 -0.7750
vn -0.2862 0.7340 -0.6159
vn 0.4462 0.6856 -0.5752
vn -0.2862 0.9004 -0.3277
vn 0.4462 0.8410 -0.3061
vn -0.2862 0.9582 0.0000
vn 0.4462 0.8949 -0.0000
vn -0.2861 0.9004 0.3277
vn 0.4462 0.8410 0.3061
vn -0.2861 0.7340 0.6159
vn 0.4462 0.6856 0.5752
vn -0.2861 0.4791 0.8298
vn 0.4462 0.4475 0.7750
vn -0.2861 0.1664 0.9436
vn 0.4462 0.1554 0.8813
vn -0.2861 -0.1664 0.9436
vn 0.4462 -0.1554 0.8813
vn -0.2861 -0.4791 0.8298
vn 0.4462 -0.4475 0.7750
vn -0.2862 -0.7340 0.6159
vn 0.4462 -0.6856 0.5752
vn -0.2862 -0.9004 0.3277
vn 0.4462 -0.8410 0.3061
# 54 vertex normals

vt 0.3400 0.0000 -0.0000
vt 0.1953 0.0000 -0.3473
vt 0.0874 0.0000 -0.6527
vt 0.0292 0.0000 -0.8794
vt 0.0278 0.0000 -1.0000
vt 0.0833 0.0000 -1.0000
vt 0.1891 0.0000 -0.8794
vt 0.3325 0.0000 -0.6527
vt 0.4960 0.0000 -0.3473
vt 0.6600 0.0000 0.0000
vt 0.8047 0.0000 0.3473
vt 0.9126 0.0000 0.6527
vt 0.9708 0.0000 0.8794
vt 0.9722 0.0000 1.0000
vt 0.9167 0.0000 1.0000
vt 0.8611 0.0000 1.0000
vt 0.8056 0.0000 1.0000
vt 0.7500 0.0000 1.0000
vt 0.8056 1.0000 1.0000
vt 0.7500 1.0000 1.0000
vt 0.8611 1.0000 1.0000
vt 0.9167 1.0000 1.0000
vt 0.9722 1.0000 1.0000
vt -0.0278 0.0000 1.0000
vt 0.0278 0.0000 1.0000
vt 0.0278 1.0000 1.0000
vt -0.0278 1.0000 1.0000
vt 0.0833 0.0000 1.0000
vt 0.0833 1.0000 1.0000
vt 0.1389 0.0000 1.0000
vt 0.1389 1.0000 1.0000
vt 0.1944 0.0000 1.0000
vt 0.1944 1.0000 1.0000
vt 0.2500 0.0000 1.0000
vt 0.2500 1.0000 1.0000
vt 0.3056 0.0000 1.0000
vt 0.3056 1.0000 1.0000
vt 0.3611 0.0000 1.0000
vt 0.3611 1.0000 1.0000
vt 0.4167 0.0000 1.0000
vt 0.4167 1.0000 1.0000
vt 0.4722 0.0000 1.0000
vt 0.4722 1.0000 1.0000
vt 0.5278 0.0000 1.0000
vt 0.5278 1.0000 1.0000
vt 0.5833 0.0000 1.0000
vt 0.5833 1.0000 1.0000
vt 0.6389 0.0000 1.0000
vt 0.6389 1.0000 1.0000
vt 0.6944 0.0000 1.0000
vt 0.6944 1.0000 1.0000
vt 0.9708 1.0000 0.8794
vt 0.9126 1.0000 0.6527
vt 0.8047 1.0000 0.3473
vt 0.6600 1.0000 0.0000
vt 0.4960 1.0000 -0.3473
vt 0.3325 1.0000 -0.6527
vt 0.1891 1.0000 -0.8794
vt 0.0833 1.0000 -1.0000
vt 0.0278 1.0000 -1.0000
vt 0.0292 1.0000 -0.8794
vt 0.0874 1.0000 -0.6527
vt 0.1953 1.0000 -0.3473
# 63 texture coords

o Cylindre001
g Cylindre001
usemtl wire_225087143
s 1
f 1/1/1 2/2/2 3/3/3 4/4/4 5/5/5 6/6/6 7/7/7 8/8/8 9/9/9 10/10/10 11/11/11 12/12/12 13/13/13 14/14/14 15/15/15 16/16/16 17/17/17 18/18/18 
s 8
f 19/18/19 20/17/20 21/19/21 22/20/22 
f 20/17/20 23/16/23 24/21/24 21/19/21 
f 23/16/23 25/15/25 26/22/26 24/21/24 
f 25/15/25 27/14/27 28/23/28 26/22/26 
f 27/24/27 29/25/29 30/26/30 28/27/28 
f 29/25/29 31/28/31 32/29/32 30/26/30 
f 31/28/31 33/30/33 34/31/34 32/29/32 
f 33/30/33 35/32/35 36/33/36 34/31/34 
f 35/32/35 37/34/37 38/35/38 36/33/36 
f 37/34/37 39/36/39 40/37/40 38/35/38 
f 39/36/39 41/38/41 42/39/42 40/37/40 
f 41/38/41 43/40/43 44/41/44 42/39/42 
f 43/40/43 45/42/45 46/43/46 44/41/44 
f 45/42/45 47/44/47 48/45/48 46/43/46 
f 47/44/47 49/46/49 50/47/50 48/45/48 
f 49/46/49 51/48/51 52/49/52 50/47/50 
f 51/48/51 53/50/53 54/51/54 52/49/52 
f 53/50/53 19/18/19 22/20/22 54/51/54 
s 1
f 54/51/54 22/20/22 21/19/21 24/21/24 26/22/26 28/23/28 30/52/30 32/53/32 34/54/34 36/55/36 38/56/38 40/57/40 42/58/42 44/59/44 46/60/46 48/61/48 50/62/50 52/63/52 
s off
f 20/17/20 19/18/19 18/18/18 17/17/17 
f 19/18/19 53/1/53 1/1/1 18/18/18 
f 53/1/53 51/2/51 2/2/2 1/1/1 
f 51/2/51 49/3/49 3/3/3 2/2/2 
f 49/3/49 47/4/47 4/4/4 3/3/3 
f 47/4/47 45/5/45 5/5/5 4/4/4 
f 45/5/45 43/6/43 6/6/6 5/5/5 
f 43/6/43 41/7/41 7/7/7 6/6/6 
f 41/7/41 39/8/39 8/8/8 7/7/7 
f 39/8/39 37/9/37 9/9/9 8/8/8 
f 37/9/37 35/10/35 10/10/10 9/9/9 
f 35/10/35 33/11/33 11/11/11 10/10/10 
f 33/11/33 31/12/31 12/12/12 11/11/11 
f 31/12/31 29/13/29 13/13/13 12/12/12 
f 29/13/29 27/14/27 14/14/14 13/13/13 
f 27/14/27 25/15/25 15/15/15 14/14/14 
f 25/15/25 23/16/23 16/16/16 15/15/15 
f 23/16/23 20/17/20 17/17/17 16/16/16 
# 38 polygons

